<svg xmlns="http://www.w3.org/2000/svg" viewBox="0 0 512 512" style="height: 512px; width: 512px;"><defs><filter id="shadow-2" height="300%" width="300%" x="-100%" y="-100%"><feFlood flood-color="#d7fdec" result="flood"></feFlood><feComposite in="flood" in2="SourceGraphic" operator="atop" result="composite"></feComposite><feGaussianBlur in="composite" stdDeviation="15" result="blur"></feGaussianBlur><feOffset dx="0" dy="0" result="offset"></feOffset><feComposite in="SourceGraphic" in2="offset" operator="over"></feComposite></filter><filter id="shadow-3" height="300%" width="300%" x="-100%" y="-100%"><feFlood flood-color="#d7fdec" result="flood"></feFlood><feComposite in="flood" in2="SourceGraphic" operator="out" result="composite"></feComposite><feGaussianBlur in="composite" stdDeviation="15" result="blur"></feGaussianBlur><feOffset dx="0" dy="0" result="offset"></feOffset><feComposite in="offset" in2="SourceGraphic" operator="atop"></feComposite></filter><filter id="shadow-4" height="300%" width="300%" x="-100%" y="-100%"><feFlood flood-color="#d7fdec" result="flood"></feFlood><feComposite in="flood" in2="SourceGraphic" operator="out" result="composite"></feComposite><feGaussianBlur in="composite" stdDeviation="15" result="blur"></feGaussianBlur><feOffset dx="0" dy="0" result="offset"></feOffset><feComposite in="offset" in2="SourceGraphic" operator="atop"></feComposite></filter><filter id="shadow-5" height="300%" width="300%" x="-100%" y="-100%"><feFlood flood-color="#d7fdec" result="flood"></feFlood><feComposite in="flood" in2="SourceGraphic" operator="out" result="composite"></feComposite><feGaussianBlur in="composite" stdDeviation="15" result="blur"></feGaussianBlur><feOffset dx="0" dy="0" result="offset"></feOffset><feComposite in="offset" in2="SourceGraphic" operator="atop"></feComposite></filter><filter id="shadow-6" height="300%" width="300%" x="-100%" y="-100%"><feFlood flood-color="#d7fdec" result="flood"></feFlood><feComposite in="flood" in2="SourceGraphic" operator="out" result="composite"></feComposite><feGaussianBlur in="composite" stdDeviation="15" result="blur"></feGaussianBlur><feOffset dx="0" dy="0" result="offset"></feOffset><feComposite in="offset" in2="SourceGraphic" operator="atop"></feComposite></filter><filter id="shadow-7" height="300%" width="300%" x="-100%" y="-100%"><feFlood flood-color="#d7fdec" result="flood"></feFlood><feComposite in="flood" in2="SourceGraphic" operator="out" result="composite"></feComposite><feGaussianBlur in="composite" stdDeviation="15" result="blur"></feGaussianBlur><feOffset dx="0" dy="0" result="offset"></feOffset><feComposite in="offset" in2="SourceGraphic" operator="atop"></feComposite></filter><filter id="shadow-8" height="300%" width="300%" x="-100%" y="-100%"><feFlood flood-color="#d7fdec" result="flood"></feFlood><feComposite in="flood" in2="SourceGraphic" operator="out" result="composite"></feComposite><feGaussianBlur in="composite" stdDeviation="15" result="blur"></feGaussianBlur><feOffset dx="0" dy="0" result="offset"></feOffset><feComposite in="offset" in2="SourceGraphic" operator="atop"></feComposite></filter><filter id="shadow-9" height="300%" width="300%" x="-100%" y="-100%"><feFlood flood-color="#d7fdec" result="flood"></feFlood><feComposite in="flood" in2="SourceGraphic" operator="out" result="composite"></feComposite><feGaussianBlur in="composite" stdDeviation="15" result="blur"></feGaussianBlur><feOffset dx="0" dy="0" result="offset"></feOffset><feComposite in="offset" in2="SourceGraphic" operator="atop"></feComposite></filter><filter id="shadow-10" height="300%" width="300%" x="-100%" y="-100%"><feFlood flood-color="#d7fdec" result="flood"></feFlood><feComposite in="flood" in2="SourceGraphic" operator="out" result="composite"></feComposite><feGaussianBlur in="composite" stdDeviation="15" result="blur"></feGaussianBlur><feOffset dx="0" dy="0" result="offset"></feOffset><feComposite in="offset" in2="SourceGraphic" operator="atop"></feComposite></filter><filter id="shadow-11" height="300%" width="300%" x="-100%" y="-100%"><feFlood flood-color="#83a0a0" result="flood"></feFlood><feComposite in="flood" in2="SourceGraphic" operator="out" result="composite"></feComposite><feGaussianBlur in="composite" stdDeviation="15" result="blur"></feGaussianBlur><feOffset dx="0" dy="0" result="offset"></feOffset><feComposite in="offset" in2="SourceGraphic" operator="atop"></feComposite></filter><radialGradient id="gradient-0"><stop offset="0%" stop-color="#2e6171" stop-opacity="1"></stop><stop offset="100%" stop-color="#2e6171" stop-opacity="0"></stop></radialGradient></defs><polygon points="477.7,384,256,512,34.3,384,34.3,128,256,0,477.7,128" fill="url(#gradient-0)"></polygon><g class="" transform="translate(0,0)" style="touch-action: none;"><g transform="translate(76.8, 76.8) scale(0.7, 0.7) rotate(0, 256, 256)"><path class="" fill="#f29559" d="M20.156 87L19.281 134.688L164.845 183.406L173.782 186.376L170.722 195.281C155.865 238.681 152.79 288.493 167.158 333.751C171.261 351.308 178.758 367.128 188.688 380.095L179.283 390.751L173.815 396.939L179.285 403.095L248.815 482.065L255.847 490.001L262.847 482.063L332.409 403.095L337.847 396.939L332.409 390.751L322.847 379.876C332.697 366.949 340.141 351.212 344.222 333.751C358.589 288.493 355.514 238.681 340.658 195.281L337.596 186.376L346.533 183.406L492.097 134.688L491.22 87L289.97 167.188C305.46 187.792 315.594 221.97 315.594 260.656C315.594 295.509 307.361 326.689 294.406 347.594L262.844 311.781L255.844 303.845L248.814 311.782L217.094 347.782C204.071 326.878 195.781 295.617 195.781 260.658C195.781 221.994 205.899 187.828 221.376 167.221L20.155 87Z" filter="url(#shadow-2)"></path><path class="" fill="#83a0a0" d="M493.5 153.906L361.156 198.22C363.719 206.69 365.851 215.376 367.562 224.188L491.094 211.813C492.737 192.743 493.454 173.287 493.5 153.906Z" filter="url(#shadow-3)"></path><path class="" fill="#83a0a0" d="M19.344 154.406C19.401 173.624 20.12 192.902 21.75 211.812L143.813 224.032C145.519 215.274 147.64 206.642 150.188 198.219L19.344 154.405Z" filter="url(#shadow-4)"></path><path class="" fill="#83a0a0" d="M23.75 230.812C25.887 248.309 28.866 265.352 32.97 281.562L139.094 271.719C139.111 261.925 139.744 252.185 140.906 242.529L23.75 230.813Z" filter="url(#shadow-5)"></path><path class="" fill="#83a0a0" d="M489.094 230.812L370.47 242.656C371.615 252.218 372.227 261.866 372.25 271.562L479.875 281.562C483.977 265.354 486.957 248.305 489.095 230.812Z" filter="url(#shadow-6)"></path><path class="" fill="#83a0a0" d="M371.564 290.25C371.006 297.478 370.104 304.7 368.844 311.875L456.814 342.031C463.93 329.091 469.832 314.947 474.656 299.845L371.562 290.251Z" filter="url(#shadow-7)"></path><path class="" fill="#83a0a0" d="M139.781 290.406L38.188 299.844C43.012 314.944 48.918 329.094 56.032 342.031L142.596 312.376C141.298 305.088 140.354 297.752 139.783 290.406Z" filter="url(#shadow-8)"></path><path class="" fill="#83a0a0" d="M364.781 330.25C362.766 337.77 360.334 345.208 357.439 352.53L412.28 394C425.707 384.216 437.118 372.173 446.75 358.312L364.78 330.25Z" filter="url(#shadow-9)"></path><path class="" fill="#83a0a0" d="M146.689 330.72L66.094 358.31C75.724 372.17 87.134 384.214 100.564 393.998L154.25 353.373C151.27 345.93 148.757 338.366 146.687 330.717Z" filter="url(#shadow-10)"></path><path class="selected" fill="#d7fdec" d="M254.939 333.125L254.939 399.688L310.5 399.688L255.812 461.718L198.719 396.938L254.937 333.125Z" filter="url(#shadow-11)"></path></g></g></svg>